<?xml version="1.0" encoding="utf-8"?>
<!-- Generator: Adobe Illustrator 28.3.0, SVG Export Plug-In . SVG Version: 6.00 Build 0)  -->
<svg version="1.1" id="图层_1" xmlns="http://www.w3.org/2000/svg" xmlns:xlink="http://www.w3.org/1999/xlink" x="0px" y="0px"
	 viewBox="0 0 568 180" style="enable-background:new 0 0 568 180;" xml:space="preserve">
<style type="text/css">
	.st0{fill:#FFFFFF;}
</style>
<g>
	<g>
		<path class="st0" d="M45.3,90c0-12.6-10.1-22.7-22.6-22.7S0,77.5,0,90c0,12.6,10.1,22.7,22.6,22.7S45.3,102.6,45.3,90z"/>
		<path class="st0" d="M177.4,67.2c-12.5,0-22.6,10.2-22.6,22.7s10.1,22.7,22.6,22.7S200,102.4,200,89.9S189.9,67.2,177.4,67.2z"/>
		<path class="st0" d="M147.6,135.6L147.6,135.6c-10.1-3.2-20.7,0.9-26,9.5l-0.3,0.4c-5.3,9.7-17.2,10.7-27.8,9.6
			c-6.2-0.7-10.1-2.7-12.9-9.8c-0.5-1.4-0.8-2.9-0.8-4.5c-0.5-9.7,8.4-21.2,17.1-21.6c1.2-0.1,2.2,0,2.9,0.1
			c9.5,0.4,18.7-5.1,22.7-10c3.7-4.6,6.4-9.4,6.8-17.2c0.1-1.6,0-3.6-0.1-4.3c-0.6-4.2-2.1-9-4.6-13.4c-1.6-2.4-2.6-5.2-2.8-8.3
			c-0.3-7.3,5.9-16.8,13.6-19.5c2.8-1,6-1,8.2-1.5c12.5-2.8,19.9-15.1,17.1-27.4c-2.9-12.3-15.1-19.7-26.9-17
			c-6.3,1.4-11.3,5.1-14.4,10.2c-5.2,8.9-18.1,11.2-28.5,8.4c-6.4-1.7-9-4.2-12.5-8.6C75.6,6.9,71.5,2.6,66,1
			C53.7-2.7,41.6,4,37.7,15.8c-4,12.2,3.1,25,14.6,28.6l0,0c10.1,3.2,20.7-0.9,26.1-9.5l0.3-0.4c5.3-9.7,17.2-10.7,27.8-9.6
			c6.2,0.7,10.1,2.7,12.9,9.8c0.5,1.4,0.8,2.9,0.8,4.5c0.5,9.7-8.4,21.2-17.1,21.6c-1.6,0.1-4.3-0.1-6,0c-7.4,0.7-14.3,3.8-19.4,9.2
			c-9.5,10.1-8.3,25-2.2,35.6c1.6,2.4,2.6,5.2,2.8,8.3c0.3,7.3-5.9,16.8-13.6,19.5c-2.8,1-6,1-8.2,1.5C44,137.7,36.6,150,39.4,162.3
			c2.9,12.3,15.1,19.7,26.9,17c6.3-1.4,11.3-5.1,14.4-10.2c5.2-8.9,18.1-11.2,28.5-8.4c6.4,1.7,9,4.2,12.5,8.6
			c2.8,3.6,6.9,7.9,12.4,9.5c12.3,3.6,24.4-3,28.3-14.8C166.3,152,159.1,139.3,147.6,135.6z"/>
	</g>
	<g>
		<path class="st0" d="M534.1,40.8h29.2V27.7h-21.5l3.1-6.8L533,15.3l-5.6,12.4h-27.1l-5.6-12.4l-12.3,5.6l3.2,6.8H464v13.1h29.4
			v35.6h-33.9v13.1H568V76.4h-33.9V40.8z M520.7,76.4h-14.1V40.8h14.1V76.4z"/>
		<path class="st0" d="M453.4,48.1c-2.2-5-10-20.8-14.6-27.7l-12.4,6.3c4.5,6.8,12.3,22.5,14.4,27.7L453.4,48.1z"/>
		<path class="st0" d="M449.1,129.5V69.7c0-1.8-0.6-3.4-2-4.7c-1.3-1.3-2.9-2-4.7-2H422v13.1h13.7v64.7c-4.8,3.9-8.5,6.8-9.7,7.8
			l8,10c17.7-13.3,30.1-25.9,32.3-28.2l-8.5-9.2C455.2,124.1,452.5,126.5,449.1,129.5z"/>
		<path class="st0" d="M551.2,102.1c0,0-40.8,0-51.4,0c-9.8,0-16.9,3.5-16.9,3.5l-0.5-3.5h-12.8v64.1h88.2v-57.3
			c0-1.9-0.6-3.5-2-4.8C554.5,102.7,553,102.1,551.2,102.1z M544.5,152.9h-61.6V140h61.6V152.9z M544.5,126.7h-61.6V118
			c0,0,3.8-2.5,16.8-2.5c11.4,0,44.8,0,44.8,0V126.7z"/>
		<polygon class="st0" points="477.1,45.9 465.1,50.6 473.7,71.9 485.4,67 		"/>
		<polygon class="st0" points="554,71.9 562.3,50.9 550.7,45.9 542,67.3 		"/>
		<path class="st0" d="M301.4,78.2c0,0,14.8,3.9,27.2,12.1c2.1-3.6,4.5-8.2,6.3-11.5C323.8,71.9,308,67.9,308,67.9l2.1-4.5H336V51.2
			h-26.3v-15H334V24h-46.5c0.9-2,1.7-4,2.3-5.7L278.3,14c-3.1,7.5-8.9,18.6-13.8,25.8l11.3,6.2c1.7-2.6,3.7-6,5.7-9.7h15v15h-32
			v12.2h30.3c0,0-1,2.7-3.7,5.1c-2.4,2.2-5.9,4.9-11.1,8.1c-4.5,2.8-10.7,4.8-16.6,7l4.1,12.5c6.3-2.1,14-4.7,20.1-8.3
			C293.6,84.5,301.4,78.2,301.4,78.2z"/>
		<path class="st0" d="M386.1,100.6c0,0-63.6,0-74.2,0c-9.8,0-16.9,3.5-16.9,3.5l-0.5-3.5h-12.8v65.6h111.1v-58.8
			c0-1.9-0.6-3.5-2-4.8C389.5,101.2,387.9,100.6,386.1,100.6z M379.4,152.9H295v-13.3h84.4V152.9z M379.4,126.3H295v-9.8
			c0,0,4.3-2.5,17.4-2.5c11.4,0,67.1,0,67.1,0v12.3H379.4z"/>
		<path class="st0" d="M395,22.2h-51V87h57.5V28.7c0-1.8-0.6-3.3-1.9-4.6C398.4,22.8,396.8,22.2,395,22.2z M388.4,73.9h-31.2V35.3
			h31.2V73.9z"/>
	</g>
</g>
</svg>
